<svg xmlns="http://www.w3.org/2000/svg" xmlns:xlink="http://www.w3.org/1999/xlink" width="667pt" height="617pt" viewBox="0 0 667 617"><g id="graph0" class="graph" transform="scale(1 1) rotate(0) translate(4 613)"><title>D</title><polygon fill="#fff" stroke="transparent" points="-4 4 -4 -613 663 -613 663 4 -4 4"/><text x="329.5" y="-7.8" fill="#fff" font-family="Times,serif" font-size="14" text-anchor="middle">Orthogonal edges</text><g id="clust1" class="cluster"><title>cluster_1</title><polygon fill="red" stroke="#fff" points="8 -35 8 -441 103 -441 103 -35 8 -35"/><text x="41.5" y="-422" fill="#fff" font-family="Times,serif" font-size="20" font-weight="bold" text-anchor="start">OS</text></g><g id="clust2" class="cluster"><title>cluster_4</title><polygon fill="red" stroke="#fff" points="150.5 -31 150.5 -601 365.5 -601 365.5 -31 150.5 -31"/><text x="181.5" y="-582" fill="#fff" font-family="Times,serif" font-size="20" font-weight="bold" text-anchor="start">Peripheral Busses</text></g><g id="clust3" class="cluster"><title>cluster_4_1</title><polygon fill="#fff" stroke="#fff" points="174 -363 174 -563 342 -563 342 -363 174 -363"/><text x="183" y="-545.6" font-family="Times,serif" font-size="18" font-weight="bold" text-anchor="start">Virtual Add-on Bus</text><text x="196" y="-530.8" fill="#777" font-family="Times,serif" font-size="14" font-style="italic" text-anchor="start">CPeripheralBusAddon</text></g><g id="clust4" class="cluster"><title>cluster_4_2</title><polygon fill="red" stroke="red" points="223 -255 223 -307 293 -307 293 -255 223 -255"/></g><g id="clust5" class="cluster"><title>cluster_4_3</title><polygon fill="#fff" stroke="#fff" points="158.5 -39 158.5 -239 357.5 -239 357.5 -39 158.5 -39"/><text x="166.5" y="-221.6" font-family="Times,serif" font-size="18" font-weight="bold" text-anchor="start">Virtual Application Bus</text><text x="182.5" y="-206.8" fill="#777" font-family="Times,serif" font-size="14" font-style="italic" text-anchor="start">CPeripheralBusApplication</text></g><g id="clust6" class="cluster"><title>cluster_7</title><polygon fill="red" stroke="#fff" points="405 -31 405 -561 651 -561 651 -31 405 -31"/><text x="467.5" y="-542" fill="#fff" font-family="Times,serif" font-size="20" font-weight="bold" text-anchor="start">Input Library</text></g><g id="clust7" class="cluster"><title>cluster_7_1</title><polygon fill="red" stroke="red" points="413 -363 413 -523 643 -523 643 -363 413 -363"/></g><g id="clust8" class="cluster"><title>cluster_7_2</title><polygon fill="red" stroke="red" points="493 -255 493 -307 563 -307 563 -255 493 -255"/></g><g id="clust9" class="cluster"><title>cluster_7_3</title><polygon fill="red" stroke="red" points="430.5 -39 430.5 -199 625.5 -199 625.5 -39 430.5 -39"/></g><g id="node1" class="node"><title>_1</title><polygon fill="#fff" stroke="#000" points="91 -403 20 -403 20 -367 91 -367 91 -403"/><text x="28" y="-382.3" font-family="Arial" font-size="14" font-weight="bold" text-anchor="start">Joystick</text></g><g id="node2" class="node"><title>_2</title><polygon fill="#fff" stroke="#000" points="91 -295 20 -295 20 -259 91 -259 91 -295"/><text x="28" y="-280.8" font-family="Arial" font-size="14" font-weight="bold" text-anchor="start">Joystick</text><text x="37" y="-266.8" font-family="Arial" font-size="14" font-weight="bold" text-anchor="start">Event</text></g><g id="node3" class="node"><title>_3</title><polygon fill="#fff" stroke="#000" points="95 -187 16 -187 16 -151 95 -151 95 -187"/><text x="24" y="-166.3" font-family="Arial" font-size="14" font-weight="bold" text-anchor="start">Keyboard</text></g><g id="node4" class="node"><title>_4</title><polygon fill="#fff" stroke="#000" points="95 -79 16 -79 16 -43 95 -43 95 -79"/><text x="24" y="-64.8" font-family="Arial" font-size="14" font-weight="bold" text-anchor="start">Keyboard</text><text x="37" y="-50.8" font-family="Arial" font-size="14" font-weight="bold" text-anchor="start">Event</text></g><g id="node8" class="node"><title>_14</title><polygon fill="#fff" stroke="#000" points="328 -83 188 -83 188 -47 328 -47 328 -83"/><text x="196" y="-68.8" font-family="Arial" font-size="14" font-weight="bold" text-anchor="start">Keyboard Handling</text><text x="203.5" y="-54.8" fill="#777" font-family="Arial" font-size="14" font-style="italic" text-anchor="start">IKeyboardHandler</text></g><g id="edge1" class="edge"><title>_4-&gt;_14</title><path fill="none" stroke="#000" stroke-width="3" d="M95.02,-63C95.02,-63 177.83,-63 177.83,-63"/><polygon fill="#000" stroke="#000" stroke-width="3" points="177.83 -66.5 187.83 -63 177.83 -59.5 177.83 -66.5"/></g><g id="node5" class="node"><title>_11</title><polygon fill="#fff" stroke="#000" points="328 -515 188 -515 188 -479 328 -479 328 -515"/><text x="196" y="-500.8" font-family="Arial" font-size="14" font-weight="bold" text-anchor="start">Joystick Peripheral</text><text x="198" y="-486.8" fill="#777" font-family="Arial" font-size="14" font-style="italic" text-anchor="start">CPeripheralJoystick</text></g><g id="node6" class="node"><title>_12</title><polygon fill="#fff" stroke="#000" points="334 -407 182 -407 182 -371 334 -371 334 -407"/><text x="208.5" y="-392.8" font-family="Arial" font-size="14" font-weight="bold" text-anchor="start">Event Handling</text><text x="190" y="-378.8" fill="#777" font-family="Arial" font-size="14" font-style="italic" text-anchor="start">IJoystickDriverHandler</text></g><g id="node9" class="node"><title>_15</title><polygon fill="#fff" stroke="#000" points="631 -515 425 -515 425 -479 631 -479 631 -515"/><text x="480.5" y="-500.8" font-family="Arial" font-size="14" font-weight="bold" text-anchor="start">Input Handling</text><text x="433" y="-486.8" fill="#777" font-family="Arial" font-size="14" font-style="italic" text-anchor="start">CGenericJoystickInputHandling</text></g><g id="edge4" class="edge"><title>_12-&gt;_15</title><path fill="none" stroke="#000" stroke-width="3" d="M334.4,-398C368.01,-398 400,-398 400,-398 400,-398 400,-497 400,-497 400,-497 414.98,-497 414.98,-497"/><polygon fill="#000" stroke="#000" stroke-width="3" points="414.98 -500.5 424.98 -497 414.98 -493.5 414.98 -500.5"/></g><g id="node10" class="node"><title>_16</title><polygon fill="#fff" stroke="#000" points="635 -407 421 -407 421 -371 635 -371 635 -407"/><text x="476" y="-392.8" font-family="Arial" font-size="14" font-weight="bold" text-anchor="start">Button Mapping</text><text x="429" y="-378.8" fill="#777" font-family="Arial" font-size="14" font-style="italic" text-anchor="start">CGenericJoystickButtonMapping</text></g><g id="edge5" class="edge"><title>_12-&gt;_16</title><path fill="none" stroke="#000" stroke-width="3" d="M334.29,-389C334.29,-389 410.92,-389 410.92,-389"/><polygon fill="#000" stroke="#000" stroke-width="3" points="410.92 -392.5 420.92 -389 410.92 -385.5 410.92 -392.5"/></g><g id="node7" class="node"><title>_13</title><polygon fill="#fff" stroke="#000" points="332.5 -191 183.5 -191 183.5 -155 332.5 -155 332.5 -191"/><text x="191.5" y="-176.8" font-family="Arial" font-size="14" font-weight="bold" text-anchor="start">Keyboard Peripheral</text><text x="193" y="-162.8" fill="#777" font-family="Arial" font-size="14" font-style="italic" text-anchor="start">CPeripheralKeyboard</text></g><g id="node11" class="node"><title>_19</title><polygon fill="#fff" stroke="#000" points="615.5 -191 440.5 -191 440.5 -155 615.5 -155 615.5 -191"/><text x="470.5" y="-176.8" font-family="Arial" font-size="14" font-weight="bold" text-anchor="start">Joystick Imitation</text><text x="448.5" y="-162.8" fill="#777" font-family="Arial" font-size="14" font-style="italic" text-anchor="start">CGenericKeyboadHandler</text></g><g id="edge2" class="edge"><title>_14-&gt;_19</title><path fill="none" stroke="#000" stroke-width="3" d="M328.15,-65C354.41,-65 378,-65 378,-65 378,-65 378,-167 378,-167 378,-167 430.31,-167 430.31,-167"/><polygon fill="#000" stroke="#000" stroke-width="3" points="430.31 -170.5 440.31 -167 430.31 -163.5 430.31 -170.5"/></g><g id="edge3" class="edge"><title>_19-&gt;_12</title><path fill="none" stroke="#000" stroke-width="3" d="M440.49,-179C398,-179 356,-179 356,-179 356,-179 356,-380 356,-380 356,-380 344.25,-380 344.25,-380"/><polygon fill="#000" stroke="#000" stroke-width="3" points="344.25 -376.5 334.25 -380 344.25 -383.5 344.25 -376.5"/></g><g id="node12" class="node"><title>_20</title><polygon fill="#fff" stroke="#000" points="617.5 -83 438.5 -83 438.5 -47 617.5 -47 617.5 -83"/><text x="490" y="-68.8" font-family="Arial" font-size="14" font-weight="bold" text-anchor="start">Button Map</text><text x="446.5" y="-54.8" fill="#777" font-family="Arial" font-size="14" font-style="italic" text-anchor="start">CAddonJoystickButtonMap</text></g><g id="node13" class="node"><title/><polygon fill="none" stroke="red" points="285 -299 231 -299 231 -263 285 -263 285 -299"/></g><g id="node14" class="node"><title>-</title><polygon fill="none" stroke="red" points="555 -299 501 -299 501 -263 555 -263 555 -299"/><text x="528" y="-277.3" fill="red" font-family="Arial" font-size="14" text-anchor="middle">-</text></g></g></svg>