<svg xmlns="http://www.w3.org/2000/svg" xmlns:xlink="http://www.w3.org/1999/xlink" width="884pt" height="617pt" viewBox="0 0 883.5 617"><g id="graph0" class="graph" transform="scale(1 1) rotate(0) translate(4 613)"><title>D</title><polygon fill="#fff" stroke="transparent" points="-4 4 -4 -613 879.5 -613 879.5 4 -4 4"/><text x="437.75" y="-7.8" fill="#fff" font-family="Times,serif" font-size="14" text-anchor="middle">Orthogonal edges</text><g id="clust1" class="cluster"><title>cluster_4</title><polygon fill="red" stroke="#fff" points="0 -31 0 -601 215 -601 215 -31 0 -31"/><text x="31" y="-582" fill="#fff" font-family="Times,serif" font-size="20" font-weight="bold" text-anchor="start">Peripheral Busses</text></g><g id="clust2" class="cluster"><title>cluster_4_1</title><polygon fill="#fff" stroke="#fff" points="23.5 -363 23.5 -563 191.5 -563 191.5 -363 23.5 -363"/><text x="32.5" y="-545.6" font-family="Times,serif" font-size="18" font-weight="bold" text-anchor="start">Virtual Add-on Bus</text><text x="45.5" y="-530.8" fill="#777" font-family="Times,serif" font-size="14" font-style="italic" text-anchor="start">CPeripheralBusAddon</text></g><g id="clust3" class="cluster"><title>cluster_4_2</title><polygon fill="red" stroke="red" points="72.5 -255 72.5 -307 142.5 -307 142.5 -255 72.5 -255"/></g><g id="clust4" class="cluster"><title>cluster_4_3</title><polygon fill="#fff" stroke="#fff" points="8 -39 8 -239 207 -239 207 -39 8 -39"/><text x="16" y="-221.6" font-family="Times,serif" font-size="18" font-weight="bold" text-anchor="start">Virtual Application Bus</text><text x="32" y="-206.8" fill="#777" font-family="Times,serif" font-size="14" font-style="italic" text-anchor="start">CPeripheralBusApplication</text></g><g id="clust5" class="cluster"><title>cluster_7</title><polygon fill="red" stroke="#fff" points="254.5 -247 254.5 -453 500.5 -453 500.5 -247 254.5 -247"/><text x="317" y="-434" fill="#fff" font-family="Times,serif" font-size="20" font-weight="bold" text-anchor="start">Input Library</text></g><g id="clust6" class="cluster"><title>cluster_7_1</title><polygon fill="red" stroke="red" points="262.5 -255 262.5 -415 492.5 -415 492.5 -255 262.5 -255"/></g><g id="clust7" class="cluster"><title>cluster_8</title><polygon fill="red" stroke="#fff" points="548.5 -363 548.5 -445 867.5 -445 867.5 -363 548.5 -363"/><text x="663" y="-426" fill="#fff" font-family="Times,serif" font-size="20" font-weight="bold" text-anchor="start">Game API</text></g><g id="node1" class="node"><title>_11</title><polygon fill="#fff" stroke="#000" points="177.5 -515 37.5 -515 37.5 -479 177.5 -479 177.5 -515"/><text x="45.5" y="-500.8" font-family="Arial" font-size="14" font-weight="bold" text-anchor="start">Joystick Peripheral</text><text x="47.5" y="-486.8" fill="#777" font-family="Arial" font-size="14" font-style="italic" text-anchor="start">CPeripheralJoystick</text></g><g id="node2" class="node"><title>_12</title><polygon fill="#fff" stroke="#000" points="183.5 -407 31.5 -407 31.5 -371 183.5 -371 183.5 -407"/><text x="58" y="-392.8" font-family="Arial" font-size="14" font-weight="bold" text-anchor="start">Event Handling</text><text x="39.5" y="-378.8" fill="#777" font-family="Arial" font-size="14" font-style="italic" text-anchor="start">IJoystickDriverHandler</text></g><g id="node5" class="node"><title>_15</title><polygon fill="#fff" stroke="#000" points="480.5 -407 274.5 -407 274.5 -371 480.5 -371 480.5 -407"/><text x="330" y="-392.8" font-family="Arial" font-size="14" font-weight="bold" text-anchor="start">Input Handling</text><text x="282.5" y="-378.8" fill="#777" font-family="Arial" font-size="14" font-style="italic" text-anchor="start">CGenericJoystickInputHandling</text></g><g id="edge1" class="edge"><title>_12-&gt;_15</title><path fill="none" stroke="#000" stroke-width="3" d="M183.79,-389C183.79,-389 264.44,-389 264.44,-389"/><polygon fill="#000" stroke="#000" stroke-width="3" points="264.44 -392.5 274.44 -389 264.44 -385.5 264.44 -392.5"/></g><g id="node3" class="node"><title>_13</title><polygon fill="#fff" stroke="#000" points="182 -191 33 -191 33 -155 182 -155 182 -191"/><text x="41" y="-176.8" font-family="Arial" font-size="14" font-weight="bold" text-anchor="start">Keyboard Peripheral</text><text x="42.5" y="-162.8" fill="#777" font-family="Arial" font-size="14" font-style="italic" text-anchor="start">CPeripheralKeyboard</text></g><g id="node4" class="node"><title>_14</title><polygon fill="#fff" stroke="#000" points="177.5 -83 37.5 -83 37.5 -47 177.5 -47 177.5 -83"/><text x="45.5" y="-68.8" font-family="Arial" font-size="14" font-weight="bold" text-anchor="start">Keyboard Handling</text><text x="53" y="-54.8" fill="#777" font-family="Arial" font-size="14" font-style="italic" text-anchor="start">IKeyboardHandler</text></g><g id="node7" class="node"><title>_21</title><polygon fill="#fff" stroke="#000" points="680.5 -407 556.5 -407 556.5 -371 680.5 -371 680.5 -407"/><text x="564.5" y="-392.8" font-family="Arial" font-size="14" font-weight="bold" text-anchor="start">Game Controller</text><text x="569" y="-378.8" fill="#777" font-family="Arial" font-size="14" font-style="italic" text-anchor="start">CControllerInput</text></g><g id="edge2" class="edge"><title>_15-&gt;_21</title><path fill="none" stroke="#000" stroke-width="3" d="M480.75,-389C480.75,-389 546.2,-389 546.2,-389"/><polygon fill="#000" stroke="#000" stroke-width="3" points="546.2 -392.5 556.2 -389 546.2 -385.5 546.2 -392.5"/></g><g id="node6" class="node"><title>_16</title><polygon fill="#fff" stroke="#000" points="484.5 -299 270.5 -299 270.5 -263 484.5 -263 484.5 -299"/><text x="325.5" y="-284.8" font-family="Arial" font-size="14" font-weight="bold" text-anchor="start">Button Mapping</text><text x="278.5" y="-270.8" fill="#777" font-family="Arial" font-size="14" font-style="italic" text-anchor="start">CGenericJoystickButtonMapping</text></g><g id="node8" class="node"><title>_22</title><polygon fill="#fff" stroke="#000" points="859.5 -407 752.5 -407 752.5 -371 859.5 -371 859.5 -407"/><text x="760.5" y="-392.8" font-family="Arial" font-size="14" font-weight="bold" text-anchor="start">Game Add-on</text><text x="764.5" y="-378.8" fill="#777" font-family="Arial" font-size="14" font-style="italic" text-anchor="start">CGameClient</text></g><g id="edge3" class="edge"><title>_21-&gt;_22</title><path fill="none" stroke="#000" stroke-width="3" d="M680.67,-389C680.67,-389 742.47,-389 742.47,-389"/><polygon fill="#000" stroke="#000" stroke-width="3" points="742.47 -392.5 752.47 -389 742.47 -385.5 742.47 -392.5"/></g><g id="node9" class="node"><title/><polygon fill="none" stroke="red" points="134.5 -299 80.5 -299 80.5 -263 134.5 -263 134.5 -299"/></g></g></svg>