<svg xmlns="http://www.w3.org/2000/svg" xmlns:xlink="http://www.w3.org/1999/xlink" width="2568" height="617pt" viewBox="0 0 1926 617"><g id="graph0" class="graph" transform="scale(1 1) rotate(0) translate(4 613)"><title>D</title><polygon fill="#fff" stroke="transparent" points="-4 4 -4 -613 1922 -613 1922 4 -4 4"/><text x="959" y="-7.8" fill="#fff" font-family="Times,serif" font-size="14" text-anchor="middle">Orthogonal edges</text><g id="clust3" class="cluster"><title>cluster_1</title><polygon fill="red" stroke="#fff" points="8 -39 8 -445 103 -445 103 -39 8 -39"/><text x="41.5" y="-426" fill="#fff" font-family="Times,serif" font-size="20" font-weight="bold" text-anchor="start">OS</text></g><g id="clust4" class="cluster"><title>cluster_2</title><polygon fill="red" stroke="#fff" points="159 -274 159 -572 375 -572 375 -274 159 -274"/><text x="187" y="-553" fill="#fff" font-family="Times,serif" font-size="20" font-weight="bold" text-anchor="start">Peripheral Add-on</text></g><g id="clust5" class="cluster"><title>cluster_3</title><polygon fill="red" stroke="#fff" points="431 -274 431 -572 606 -572 606 -274 431 -274"/><text x="453.5" y="-553" fill="#fff" font-family="Times,serif" font-size="20" font-weight="bold" text-anchor="start">Peripheral API</text></g><g id="clust6" class="cluster"><title>cluster_4</title><polygon fill="red" stroke="#fff" points="653.5 -31 653.5 -601 868.5 -601 868.5 -31 653.5 -31"/><text x="684.5" y="-582" fill="#fff" font-family="Times,serif" font-size="20" font-weight="bold" text-anchor="start">Peripheral Busses</text></g><g id="clust7" class="cluster"><title>cluster_4_1</title><polygon fill="#fff" stroke="#fff" points="677 -363 677 -563 845 -563 845 -363 677 -363"/><text x="686" y="-545.6" font-family="Times,serif" font-size="18" font-weight="bold" text-anchor="start">Virtual Add-on Bus</text><text x="699" y="-530.8" fill="#777" font-family="Times,serif" font-size="14" font-style="italic" text-anchor="start">CPeripheralBusAddon</text></g><g id="clust8" class="cluster"><title>cluster_4_2</title><polygon fill="red" stroke="red" points="726 -255 726 -307 796 -307 796 -255 726 -255"/></g><g id="clust9" class="cluster"><title>cluster_4_3</title><polygon fill="#fff" stroke="#fff" points="661.5 -39 661.5 -239 860.5 -239 860.5 -39 661.5 -39"/><text x="669.5" y="-221.6" font-family="Times,serif" font-size="18" font-weight="bold" text-anchor="start">Virtual Application Bus</text><text x="685.5" y="-206.8" fill="#777" font-family="Times,serif" font-size="14" font-style="italic" text-anchor="start">CPeripheralBusApplication</text></g><g id="clust17" class="cluster"><title>cluster_11</title><polygon fill="red" stroke="#fff" points="1706 -167 1706 -465 1918 -465 1918 -167 1706 -167"/><text x="1714" y="-446" fill="#fff" font-family="Times,serif" font-size="20" font-weight="bold" text-anchor="start">Libretro API Wrapper</text></g><g id="clust16" class="cluster"><title>cluster_10</title><polygon fill="red" stroke="#fff" points="1225.5 -275 1225.5 -357 1627.5 -357 1627.5 -275 1225.5 -275"/><text x="1378.5" y="-338" fill="#fff" font-family="Times,serif" font-size="20" font-weight="bold" text-anchor="start">Kodi Input</text></g><g id="clust15" class="cluster"><title>cluster_9</title><polygon fill="red" stroke="#fff" points="1202 -383 1202 -465 1650 -465 1650 -383 1202 -383"/><text x="1344.5" y="-446" fill="#fff" font-family="Times,serif" font-size="20" font-weight="bold" text-anchor="start">Configuration GUI</text></g><g id="clust14" class="cluster"><title>cluster_8</title><polygon fill="red" stroke="#fff" points="1229 -491 1229 -573 1612.5 -573 1612.5 -491 1229 -491"/><text x="1375.75" y="-554" fill="#fff" font-family="Times,serif" font-size="20" font-weight="bold" text-anchor="start">Game API</text></g><g id="clust10" class="cluster"><title>cluster_7</title><polygon fill="red" stroke="#fff" points="908 -51 908 -581 1154 -581 1154 -51 908 -51"/><text x="970.5" y="-562" fill="#fff" font-family="Times,serif" font-size="20" font-weight="bold" text-anchor="start">Input Library</text></g><g id="clust11" class="cluster"><title>cluster_7_1</title><polygon fill="red" stroke="red" points="916 -383 916 -543 1146 -543 1146 -383 916 -383"/></g><g id="clust12" class="cluster"><title>cluster_7_2</title><polygon fill="red" stroke="red" points="996 -275 996 -327 1066 -327 1066 -275 996 -275"/></g><g id="clust13" class="cluster"><title>cluster_7_3</title><polygon fill="red" stroke="red" points="933.5 -59 933.5 -219 1128.5 -219 1128.5 -59 933.5 -59"/></g><g id="node1" class="node"><title>_1</title><polygon fill="#fff" stroke="#000" points="91 -407 20 -407 20 -371 91 -371 91 -407"/><text x="28" y="-386.3" font-family="Arial" font-size="14" font-weight="bold" text-anchor="start">Joystick</text></g><g id="node5" class="node"><title>_5</title><polygon fill="#fff" stroke="#000" points="304 -426 230 -426 230 -390 304 -390 304 -426"/><text x="239.5" y="-411.8" font-family="Arial" font-size="14" font-weight="bold" text-anchor="start">Joystick</text><text x="238" y="-397.8" fill="#777" font-family="Arial" font-size="14" font-style="italic" text-anchor="start">CJoystick</text></g><g id="edge1" class="edge"><title>_1-&gt;_5</title><path fill="none" stroke="#000" stroke-width="3" d="M91.38,-398.5C91.38,-398.5 219.88,-398.5 219.88,-398.5"/><polygon fill="#000" stroke="#000" stroke-width="3" points="219.88 -402 229.88 -398.5 219.88 -395 219.88 -402"/></g><g id="node2" class="node"><title>_2</title><polygon fill="#fff" stroke="#000" points="91 -299 20 -299 20 -263 91 -263 91 -299"/><text x="28" y="-284.8" font-family="Arial" font-size="14" font-weight="bold" text-anchor="start">Joystick</text><text x="37" y="-270.8" font-family="Arial" font-size="14" font-weight="bold" text-anchor="start">Event</text></g><g id="node6" class="node"><title>_6</title><polygon fill="#fff" stroke="#000" points="362 -318 172 -318 172 -282 362 -282 362 -318"/><text x="213.5" y="-303.8" font-family="Arial" font-size="14" font-weight="bold" text-anchor="start">Peripheral Event</text><text x="180" y="-289.8" fill="#777" font-family="Arial" font-size="14" font-style="italic" text-anchor="start">kodi::addon::PeripheralEvent</text></g><g id="edge2" class="edge"><title>_2-&gt;_6</title><path fill="none" stroke="#000" stroke-width="3" d="M91.38,-290.5C91.38,-290.5 161.64,-290.5 161.64,-290.5"/><polygon fill="#000" stroke="#000" stroke-width="3" points="161.64 -294 171.64 -290.5 161.64 -287 161.64 -294"/></g><g id="node3" class="node"><title>_3</title><polygon fill="#fff" stroke="#000" points="95 -191 16 -191 16 -155 95 -155 95 -191"/><text x="24" y="-170.3" font-family="Arial" font-size="14" font-weight="bold" text-anchor="start">Keyboard</text></g><g id="node13" class="node"><title>_13</title><polygon fill="#fff" stroke="#000" points="835.5 -191 686.5 -191 686.5 -155 835.5 -155 835.5 -191"/><text x="694.5" y="-176.8" font-family="Arial" font-size="14" font-weight="bold" text-anchor="start">Keyboard Peripheral</text><text x="696" y="-162.8" fill="#777" font-family="Arial" font-size="14" font-style="italic" text-anchor="start">CPeripheralKeyboard</text></g><g id="edge3" class="edge"><title>_3-&gt;_13</title><path fill="none" stroke="#000" stroke-width="3" d="M95.2,-173C95.2,-173 676.36,-173 676.36,-173"/><polygon fill="#000" stroke="#000" stroke-width="3" points="676.36 -176.5 686.36 -173 676.36 -169.5 676.36 -176.5"/></g><g id="node4" class="node"><title>_4</title><polygon fill="#fff" stroke="#000" points="95 -83 16 -83 16 -47 95 -47 95 -83"/><text x="24" y="-68.8" font-family="Arial" font-size="14" font-weight="bold" text-anchor="start">Keyboard</text><text x="37" y="-54.8" font-family="Arial" font-size="14" font-weight="bold" text-anchor="start">Event</text></g><g id="node14" class="node"><title>_14</title><polygon fill="#fff" stroke="#000" points="831 -83 691 -83 691 -47 831 -47 831 -83"/><text x="699" y="-68.8" font-family="Arial" font-size="14" font-weight="bold" text-anchor="start">Keyboard Handling</text><text x="706.5" y="-54.8" fill="#777" font-family="Arial" font-size="14" font-style="italic" text-anchor="start">IKeyboardHandler</text></g><g id="edge4" class="edge"><title>_4-&gt;_14</title><path fill="none" stroke="#000" stroke-width="3" d="M95.2,-65C95.2,-65 680.86,-65 680.86,-65"/><polygon fill="#000" stroke="#000" stroke-width="3" points="680.86 -68.5 690.86 -65 680.86 -61.5 680.86 -68.5"/></g><g id="node8" class="node"><title>_8</title><polygon fill="#fff" stroke="#000" points="580.5 -426 456.5 -426 456.5 -390 580.5 -390 580.5 -426"/><text x="492.5" y="-411.8" font-family="Arial" font-size="14" font-weight="bold" text-anchor="start">C struct</text><text x="464.5" y="-397.8" fill="#777" font-family="Arial" font-size="14" font-style="italic" text-anchor="start">JOYSTICK_INFO</text></g><g id="edge5" class="edge"><title>_5-&gt;_8</title><path fill="none" stroke="#000" stroke-width="3" d="M304.11,-408C304.11,-408 446.36,-408 446.36,-408"/><polygon fill="#000" stroke="#000" stroke-width="3" points="446.36 -411.5 456.36 -408 446.36 -404.5 446.36 -411.5"/></g><g id="node9" class="node"><title>_9</title><polygon fill="#fff" stroke="#000" points="596 -318 441 -318 441 -282 596 -282 596 -318"/><text x="492.5" y="-303.8" font-family="Arial" font-size="14" font-weight="bold" text-anchor="start">C struct</text><text x="449" y="-289.8" fill="#777" font-family="Arial" font-size="14" font-style="italic" text-anchor="start">PERIPHERAL_EVENT</text></g><g id="edge6" class="edge"><title>_6-&gt;_9</title><path fill="none" stroke="#000" stroke-width="3" d="M362.08,-300C362.08,-300 430.88,-300 430.88,-300"/><polygon fill="#000" stroke="#000" stroke-width="3" points="430.88 -303.5 440.88 -300 430.88 -296.5 430.88 -303.5"/></g><g id="node7" class="node"><title>_7</title><polygon fill="#fff" stroke="#000" points="367 -534 167 -534 167 -498 367 -498 367 -534"/><text x="231" y="-519.8" font-family="Arial" font-size="14" font-weight="bold" text-anchor="start">ButtonMap</text><text x="175" y="-505.8" fill="#777" font-family="Arial" font-size="14" font-style="italic" text-anchor="start">kodi::addon::JoystickFeatures*</text></g><g id="node10" class="node"><title>_10</title><polygon fill="#fff" stroke="#000" points="598 -534 439 -534 439 -498 598 -498 598 -534"/><text x="489" y="-519.8" font-family="Arial" font-size="14" font-weight="bold" text-anchor="start">C structs</text><text x="447" y="-505.8" fill="#777" font-family="Arial" font-size="14" font-style="italic" text-anchor="start">JOYSTICK_FEATURE*</text></g><g id="edge7" class="edge"><title>_7-&gt;_10</title><path fill="none" stroke="#000" stroke-width="3" d="M377.12,-516C377.12,-516 428.85,-516 428.85,-516"/><polygon fill="#000" stroke="#000" stroke-width="3" points="428.85 -519.5 438.85 -516 428.85 -512.5 428.85 -519.5"/><polygon fill="#000" stroke="#000" stroke-width="3" points="377.12 -512.5 367.12 -516 377.12 -519.5 377.12 -512.5"/></g><g id="node11" class="node"><title>_11</title><polygon fill="#fff" stroke="#000" points="831 -515 691 -515 691 -479 831 -479 831 -515"/><text x="699" y="-500.8" font-family="Arial" font-size="14" font-weight="bold" text-anchor="start">Joystick Peripheral</text><text x="701" y="-486.8" fill="#777" font-family="Arial" font-size="14" font-style="italic" text-anchor="start">CPeripheralJoystick</text></g><g id="edge9" class="edge"><title>_8-&gt;_11</title><path fill="none" stroke="#000" stroke-width="3" d="M519,-426.27C519,-450.02 519,-488.5 519,-488.5 519,-488.5 680.68,-488.5 680.68,-488.5"/><polygon fill="#000" stroke="#000" stroke-width="3" points="680.68 -492 690.68 -488.5 680.68 -485 680.68 -492"/></g><g id="node12" class="node"><title>_12</title><polygon fill="#fff" stroke="#000" points="837 -407 685 -407 685 -371 837 -371 837 -407"/><text x="711.5" y="-392.8" font-family="Arial" font-size="14" font-weight="bold" text-anchor="start">Event Handling</text><text x="693" y="-378.8" fill="#777" font-family="Arial" font-size="14" font-style="italic" text-anchor="start">IJoystickDriverHandler</text></g><g id="edge10" class="edge"><title>_9-&gt;_12</title><path fill="none" stroke="#000" stroke-width="3" d="M589,-318.27C589,-342.02 589,-380.5 589,-380.5 589,-380.5 674.81,-380.5 674.81,-380.5"/><polygon fill="#000" stroke="#000" stroke-width="3" points="674.81 -384 684.81 -380.5 674.81 -377 674.81 -384"/></g><g id="node18" class="node"><title>_20</title><polygon fill="#fff" stroke="#000" points="1120.5 -211 941.5 -211 941.5 -175 1120.5 -175 1120.5 -211"/><text x="993" y="-196.8" font-family="Arial" font-size="14" font-weight="bold" text-anchor="start">Button Map</text><text x="949.5" y="-182.8" fill="#777" font-family="Arial" font-size="14" font-style="italic" text-anchor="start">CAddonJoystickButtonMap</text></g><g id="edge8" class="edge"><title>_10-&gt;_20</title><path fill="none" stroke="#000" stroke-width="3" d="M608.11,-506.5C608.11,-506.5 642,-506.5 642,-506.5 642,-506.5 642,-197.67 642,-197.67 642,-197.67 931.27,-197.67 931.27,-197.67"/><polygon fill="#000" stroke="#000" stroke-width="3" points="608.11 -503 598.11 -506.5 608.11 -510 608.11 -503"/><polygon fill="#000" stroke="#000" stroke-width="3" points="931.27 -201.17 941.27 -197.67 931.27 -194.17 931.27 -201.17"/></g><g id="node15" class="node"><title>_15</title><polygon fill="#fff" stroke="#000" points="1134 -535 928 -535 928 -499 1134 -499 1134 -535"/><text x="983.5" y="-520.8" font-family="Arial" font-size="14" font-weight="bold" text-anchor="start">Input Handling</text><text x="936" y="-506.8" fill="#777" font-family="Arial" font-size="14" font-style="italic" text-anchor="start">CGenericJoystickInputHandling</text></g><g id="edge13" class="edge"><title>_12-&gt;_15</title><path fill="none" stroke="#000" stroke-width="3" d="M837.03,-401.67C853.45,-401.67 866,-401.67 866,-401.67 866,-401.67 866,-509.67 866,-509.67 866,-509.67 917.91,-509.67 917.91,-509.67"/><polygon fill="#000" stroke="#000" stroke-width="3" points="917.91 -513.17 927.91 -509.67 917.91 -506.17 917.91 -513.17"/></g><g id="node16" class="node"><title>_16</title><polygon fill="#fff" stroke="#000" points="1138 -427 924 -427 924 -391 1138 -391 1138 -427"/><text x="979" y="-412.8" font-family="Arial" font-size="14" font-weight="bold" text-anchor="start">Button Mapping</text><text x="932" y="-398.8" fill="#777" font-family="Arial" font-size="14" font-style="italic" text-anchor="start">CGenericJoystickButtonMapping</text></g><g id="edge14" class="edge"><title>_12-&gt;_16</title><path fill="none" stroke="#000" stroke-width="3" d="M837.29,-396.33C837.29,-396.33 913.92,-396.33 913.92,-396.33"/><polygon fill="#000" stroke="#000" stroke-width="3" points="913.92 -399.83 923.92 -396.33 913.92 -392.83 913.92 -399.83"/></g><g id="node17" class="node"><title>_19</title><polygon fill="#fff" stroke="#000" points="1118.5 -103 943.5 -103 943.5 -67 1118.5 -67 1118.5 -103"/><text x="973.5" y="-88.8" font-family="Arial" font-size="14" font-weight="bold" text-anchor="start">Joystick Imitation</text><text x="951.5" y="-74.8" fill="#777" font-family="Arial" font-size="14" font-style="italic" text-anchor="start">CGenericKeyboadHandler</text></g><g id="edge11" class="edge"><title>_14-&gt;_19</title><path fill="none" stroke="#000" stroke-width="3" d="M831.23,-75C831.23,-75 933.23,-75 933.23,-75"/><polygon fill="#000" stroke="#000" stroke-width="3" points="933.23 -78.5 943.23 -75 933.23 -71.5 933.23 -78.5"/></g><g id="node19" class="node"><title>_21</title><polygon fill="#fff" stroke="#000" points="1361 -535 1237 -535 1237 -499 1361 -499 1361 -535"/><text x="1245" y="-520.8" font-family="Arial" font-size="14" font-weight="bold" text-anchor="start">Game Controller</text><text x="1249.5" y="-506.8" fill="#777" font-family="Arial" font-size="14" font-style="italic" text-anchor="start">CControllerInput</text></g><g id="edge15" class="edge"><title>_15-&gt;_21</title><path fill="none" stroke="#000" stroke-width="3" d="M1134.23,-523C1134.23,-523 1226.93,-523 1226.93,-523"/><polygon fill="#000" stroke="#000" stroke-width="3" points="1226.93 -526.5 1236.93 -523 1226.93 -519.5 1226.93 -526.5"/></g><g id="node23" class="node"><title>_25</title><polygon fill="#fff" stroke="#000" points="1364.5 -319 1233.5 -319 1233.5 -283 1364.5 -283 1364.5 -319"/><text x="1241.5" y="-304.8" font-family="Arial" font-size="14" font-weight="bold" text-anchor="start">Default Controller</text><text x="1243" y="-290.8" fill="#777" font-family="Arial" font-size="14" font-style="italic" text-anchor="start">CDefaultController</text></g><g id="edge16" class="edge"><title>_15-&gt;_25</title><path fill="none" stroke="#000" stroke-width="3" d="M1134.17,-511C1156.72,-511 1174,-511 1174,-511 1174,-511 1174,-301 1174,-301 1174,-301 1223.21,-301 1223.21,-301"/><polygon fill="#000" stroke="#000" stroke-width="3" points="1223.21 -304.5 1233.21 -301 1223.21 -297.5 1223.21 -304.5"/></g><g id="node21" class="node"><title>_23</title><polygon fill="#fff" stroke="#000" points="1388 -427 1210 -427 1210 -391 1388 -391 1388 -427"/><text x="1254.5" y="-412.8" font-family="Arial" font-size="14" font-weight="bold" text-anchor="start">Button Dialog</text><text x="1218" y="-398.8" fill="#777" font-family="Arial" font-size="14" font-style="italic" text-anchor="start">CGUIDialogControllerInput</text></g><g id="edge17" class="edge"><title>_16-&gt;_23</title><path fill="none" stroke="#000" stroke-width="3" d="M1148.08,-409C1148.08,-409 1199.75,-409 1199.75,-409"/><polygon fill="#000" stroke="#000" stroke-width="3" points="1199.75 -412.5 1209.75 -409 1199.75 -405.5 1199.75 -412.5"/><polygon fill="#000" stroke="#000" stroke-width="3" points="1148.08 -405.5 1138.08 -409 1148.08 -412.5 1148.08 -405.5"/></g><g id="edge12" class="edge"><title>_19-&gt;_12</title><path fill="none" stroke="#000" stroke-width="3" d="M943.49,-93C937.04,-93 933,-93 933,-93 933,-93 933,-381 933,-381 933,-381 847.19,-381 847.19,-381"/><polygon fill="#000" stroke="#000" stroke-width="3" points="847.19 -377.5 837.19 -381 847.19 -384.5 847.19 -377.5"/></g><g id="edge25" class="edge"><title>_20-&gt;_15</title><path fill="none" stroke="#000" stroke-width="3" d="M941.42,-204.33C915.96,-204.33 895,-204.33 895,-204.33 895,-204.33 895,-504.33 895,-504.33 895,-504.33 917.92,-504.33 917.92,-504.33"/><polygon fill="#000" stroke="#000" stroke-width="3" points="917.92 -507.83 927.92 -504.33 917.92 -500.83 917.92 -507.83"/></g><g id="edge26" class="edge"><title>_20-&gt;_16</title><path fill="none" stroke="#000" stroke-width="3" d="M1090,-211.04C1090,-211.04 1090,-380.85 1090,-380.85"/><polygon fill="#000" stroke="#000" stroke-width="3" points="1086.5 -380.85 1090 -390.85 1093.5 -380.85 1086.5 -380.85"/></g><g id="node20" class="node"><title>_22</title><polygon fill="#fff" stroke="#000" points="1604.5 -535 1497.5 -535 1497.5 -499 1604.5 -499 1604.5 -535"/><text x="1505.5" y="-520.8" font-family="Arial" font-size="14" font-weight="bold" text-anchor="start">Game Add-on</text><text x="1509.5" y="-506.8" fill="#777" font-family="Arial" font-size="14" font-style="italic" text-anchor="start">CGameClient</text></g><g id="edge19" class="edge"><title>_21-&gt;_22</title><path fill="none" stroke="#000" stroke-width="3" d="M1361.29,-523C1361.29,-523 1487.11,-523 1487.11,-523"/><polygon fill="#000" stroke="#000" stroke-width="3" points="1487.11 -526.5 1497.11 -523 1487.11 -519.5 1487.11 -526.5"/></g><g id="node26" class="node"><title>_28</title><polygon fill="#fff" stroke="#000" points="1869 -319 1754 -319 1754 -283 1869 -283 1869 -319"/><text x="1762" y="-304.8" font-family="Arial" font-size="14" font-weight="bold" text-anchor="start">Libretro Device</text><text x="1763" y="-290.8" fill="#777" font-family="Arial" font-size="14" font-style="italic" text-anchor="start">CLibretroDevice</text></g><g id="edge23" class="edge"><title>_22-&gt;_28</title><path fill="none" stroke="#000" stroke-width="3" d="M1604.9,-517C1646.86,-517 1698,-517 1698,-517 1698,-517 1698,-301 1698,-301 1698,-301 1743.75,-301 1743.75,-301"/><polygon fill="#000" stroke="#000" stroke-width="3" points="1743.75 -304.5 1753.75 -301 1743.75 -297.5 1743.75 -304.5"/></g><g id="node22" class="node"><title>_24</title><polygon fill="#fff" stroke="#000" points="1642 -427 1460 -427 1460 -391 1642 -391 1642 -427"/><text x="1468" y="-412.8" font-family="Arial" font-size="14" font-weight="bold" text-anchor="start">Game Controller Add-ons</text><text x="1497.5" y="-398.8" fill="#777" font-family="Arial" font-size="14" font-style="italic" text-anchor="start">CGameController</text></g><g id="edge18" class="edge"><title>_23-&gt;_24</title><path fill="none" stroke="#000" stroke-width="3" d="M1398.2,-409C1398.2,-409 1459.79,-409 1459.79,-409"/><polygon fill="#000" stroke="#000" stroke-width="3" points="1398.2 -405.5 1388.2 -409 1398.2 -412.5 1398.2 -405.5"/></g><g id="edge24" class="edge"><title>_24-&gt;_21</title><path fill="none" stroke="#000" stroke-width="3" d="M1479,-427.24C1479,-456.57 1479,-511 1479,-511 1479,-511 1371.2,-511 1371.2,-511"/><polygon fill="#000" stroke="#000" stroke-width="3" points="1371.2 -507.5 1361.2 -511 1371.2 -514.5 1371.2 -507.5"/></g><g id="node24" class="node"><title>_26</title><polygon fill="#fff" stroke="#000" points="1619.5 -319 1482.5 -319 1482.5 -283 1619.5 -283 1619.5 -319"/><text x="1490.5" y="-304.8" font-family="Arial" font-size="14" font-weight="bold" text-anchor="start">Kodi Input Handler</text><text x="1491" y="-290.8" fill="#777" font-family="Arial" font-size="14" font-style="italic" text-anchor="start">CButtonKeyHandler</text></g><g id="edge20" class="edge"><title>_25-&gt;_26</title><path fill="none" stroke="#000" stroke-width="3" d="M1364.55,-301C1364.55,-301 1472.25,-301 1472.25,-301"/><polygon fill="#000" stroke="#000" stroke-width="3" points="1472.25 -304.5 1482.25 -301 1472.25 -297.5 1472.25 -304.5"/></g><g id="node25" class="node"><title>_27</title><polygon fill="#fff" stroke="#000" points="1868 -427 1755 -427 1755 -391 1868 -391 1868 -427"/><text x="1763" y="-412.8" font-family="Arial" font-size="14" font-weight="bold" text-anchor="start">Button Mapper</text><text x="1763.5" y="-398.8" fill="#777" font-family="Arial" font-size="14" font-style="italic" text-anchor="start">CButtonMapper</text></g><g id="edge21" class="edge"><title>_27-&gt;_28</title><path fill="none" stroke="#000" stroke-width="3" d="M1812,-390.68C1812,-390.68 1812,-329.05 1812,-329.05"/><polygon fill="#000" stroke="#000" stroke-width="3" points="1815.5 -329.05 1812 -319.05 1808.5 -329.05 1815.5 -329.05"/></g><g id="node27" class="node"><title>_29</title><polygon fill="#fff" stroke="#000" points="1862.5 -211 1760.5 -211 1760.5 -175 1862.5 -175 1862.5 -211"/><text x="1768.5" y="-196.8" font-family="Arial" font-size="14" font-weight="bold" text-anchor="start">Libretro Core</text><text x="1775.5" y="-182.8" fill="#777" font-family="Arial" font-size="14" font-style="italic" text-anchor="start">CLibretroDll</text></g><g id="edge22" class="edge"><title>_28-&gt;_29</title><path fill="none" stroke="#000" stroke-width="3" d="M1812,-282.68C1812,-282.68 1812,-221.05 1812,-221.05"/><polygon fill="#000" stroke="#000" stroke-width="3" points="1815.5 -221.05 1812 -211.05 1808.5 -221.05 1815.5 -221.05"/></g><g id="node28" class="node"><title/><polygon fill="none" stroke="red" points="788 -299 734 -299 734 -263 788 -263 788 -299"/></g><g id="node29" class="node"><title>-</title><polygon fill="none" stroke="red" points="1058 -319 1004 -319 1004 -283 1058 -283 1058 -319"/><text x="1031" y="-297.3" fill="red" font-family="Arial" font-size="14" text-anchor="middle">-</text></g></g></svg>