<svg xmlns="http://www.w3.org/2000/svg" xmlns:xlink="http://www.w3.org/1999/xlink" width="877pt" height="617pt" viewBox="0 0 876.5 617"><g id="graph0" class="graph" transform="scale(1 1) rotate(0) translate(4 613)"><title>D</title><polygon fill="#fff" stroke="transparent" points="-4 4 -4 -613 872.5 -613 872.5 4 -4 4"/><text x="434.25" y="-7.8" fill="#fff" font-family="Times,serif" font-size="14" text-anchor="middle">Orthogonal edges</text><g id="clust1" class="cluster"><title>cluster_1</title><polygon fill="red" stroke="#fff" points="8 -147 8 -553 103 -553 103 -147 8 -147"/><text x="41.5" y="-534" fill="#fff" font-family="Times,serif" font-size="20" font-weight="bold" text-anchor="start">OS</text></g><g id="clust2" class="cluster"><title>cluster_2</title><polygon fill="red" stroke="#fff" points="159 -255 159 -553 375 -553 375 -255 159 -255"/><text x="187" y="-534" fill="#fff" font-family="Times,serif" font-size="20" font-weight="bold" text-anchor="start">Peripheral Add-on</text></g><g id="clust3" class="cluster"><title>cluster_3</title><polygon fill="red" stroke="#fff" points="431 -255 431 -553 606 -553 606 -255 431 -255"/><text x="453.5" y="-534" fill="#fff" font-family="Times,serif" font-size="20" font-weight="bold" text-anchor="start">Peripheral API</text></g><g id="clust4" class="cluster"><title>cluster_4</title><polygon fill="red" stroke="#fff" points="653.5 -31 653.5 -601 868.5 -601 868.5 -31 653.5 -31"/><text x="684.5" y="-582" fill="#fff" font-family="Times,serif" font-size="20" font-weight="bold" text-anchor="start">Peripheral Busses</text></g><g id="clust5" class="cluster"><title>cluster_4_1</title><polygon fill="#fff" stroke="#fff" points="677 -363 677 -563 845 -563 845 -363 677 -363"/><text x="686" y="-545.6" font-family="Times,serif" font-size="18" font-weight="bold" text-anchor="start">Virtual Add-on Bus</text><text x="699" y="-530.8" fill="#777" font-family="Times,serif" font-size="14" font-style="italic" text-anchor="start">CPeripheralBusAddon</text></g><g id="clust6" class="cluster"><title>cluster_4_2</title><polygon fill="red" stroke="red" points="726 -255 726 -307 796 -307 796 -255 726 -255"/></g><g id="clust7" class="cluster"><title>cluster_4_3</title><polygon fill="#fff" stroke="#fff" points="661.5 -39 661.5 -239 860.5 -239 860.5 -39 661.5 -39"/><text x="669.5" y="-221.6" font-family="Times,serif" font-size="18" font-weight="bold" text-anchor="start">Virtual Application Bus</text><text x="685.5" y="-206.8" fill="#777" font-family="Times,serif" font-size="14" font-style="italic" text-anchor="start">CPeripheralBusApplication</text></g><g id="node1" class="node"><title>_1</title><polygon fill="#fff" stroke="#000" points="91 -515 20 -515 20 -479 91 -479 91 -515"/><text x="28" y="-494.3" font-family="Arial" font-size="14" font-weight="bold" text-anchor="start">Joystick</text></g><g id="node2" class="node"><title>_2</title><polygon fill="#fff" stroke="#000" points="91 -407 20 -407 20 -371 91 -371 91 -407"/><text x="28" y="-392.8" font-family="Arial" font-size="14" font-weight="bold" text-anchor="start">Joystick</text><text x="37" y="-378.8" font-family="Arial" font-size="14" font-weight="bold" text-anchor="start">Event</text></g><g id="node6" class="node"><title>_6</title><polygon fill="#fff" stroke="#000" points="362 -407 172 -407 172 -371 362 -371 362 -407"/><text x="213.5" y="-392.8" font-family="Arial" font-size="14" font-weight="bold" text-anchor="start">Peripheral Event</text><text x="180" y="-378.8" fill="#777" font-family="Arial" font-size="14" font-style="italic" text-anchor="start">kodi::addon::PeripheralEvent</text></g><g id="edge1" class="edge"><title>_2-&gt;_6</title><path fill="none" stroke="#000" stroke-width="3" d="M91.38,-389C91.38,-389 161.64,-389 161.64,-389"/><polygon fill="#000" stroke="#000" stroke-width="3" points="161.64 -392.5 171.64 -389 161.64 -385.5 161.64 -392.5"/></g><g id="node3" class="node"><title>_3</title><polygon fill="#fff" stroke="#000" points="95 -299 16 -299 16 -263 95 -263 95 -299"/><text x="24" y="-278.3" font-family="Arial" font-size="14" font-weight="bold" text-anchor="start">Keyboard</text></g><g id="node4" class="node"><title>_4</title><polygon fill="#fff" stroke="#000" points="95 -191 16 -191 16 -155 95 -155 95 -191"/><text x="24" y="-176.8" font-family="Arial" font-size="14" font-weight="bold" text-anchor="start">Keyboard</text><text x="37" y="-162.8" font-family="Arial" font-size="14" font-weight="bold" text-anchor="start">Event</text></g><g id="node5" class="node"><title>_5</title><polygon fill="#fff" stroke="#000" points="304 -515 230 -515 230 -479 304 -479 304 -515"/><text x="239.5" y="-500.8" font-family="Arial" font-size="14" font-weight="bold" text-anchor="start">Joystick</text><text x="238" y="-486.8" fill="#777" font-family="Arial" font-size="14" font-style="italic" text-anchor="start">CJoystick</text></g><g id="node9" class="node"><title>_9</title><polygon fill="#fff" stroke="#000" points="596 -407 441 -407 441 -371 596 -371 596 -407"/><text x="492.5" y="-392.8" font-family="Arial" font-size="14" font-weight="bold" text-anchor="start">C struct</text><text x="449" y="-378.8" fill="#777" font-family="Arial" font-size="14" font-style="italic" text-anchor="start">PERIPHERAL_EVENT</text></g><g id="edge2" class="edge"><title>_6-&gt;_9</title><path fill="none" stroke="#000" stroke-width="3" d="M362.08,-389C362.08,-389 430.88,-389 430.88,-389"/><polygon fill="#000" stroke="#000" stroke-width="3" points="430.88 -392.5 440.88 -389 430.88 -385.5 430.88 -392.5"/></g><g id="node7" class="node"><title>_7</title><polygon fill="#fff" stroke="#000" points="367 -299 167 -299 167 -263 367 -263 367 -299"/><text x="231" y="-284.8" font-family="Arial" font-size="14" font-weight="bold" text-anchor="start">ButtonMap</text><text x="175" y="-270.8" fill="#777" font-family="Arial" font-size="14" font-style="italic" text-anchor="start">kodi::addon::JoystickFeatures*</text></g><g id="node8" class="node"><title>_8</title><polygon fill="#fff" stroke="#000" points="580.5 -515 456.5 -515 456.5 -479 580.5 -479 580.5 -515"/><text x="492.5" y="-500.8" font-family="Arial" font-size="14" font-weight="bold" text-anchor="start">C struct</text><text x="464.5" y="-486.8" fill="#777" font-family="Arial" font-size="14" font-style="italic" text-anchor="start">JOYSTICK_INFO</text></g><g id="node12" class="node"><title>_12</title><polygon fill="#fff" stroke="#000" points="837 -407 685 -407 685 -371 837 -371 837 -407"/><text x="711.5" y="-392.8" font-family="Arial" font-size="14" font-weight="bold" text-anchor="start">Event Handling</text><text x="693" y="-378.8" fill="#777" font-family="Arial" font-size="14" font-style="italic" text-anchor="start">IJoystickDriverHandler</text></g><g id="edge3" class="edge"><title>_9-&gt;_12</title><path fill="none" stroke="#000" stroke-width="3" d="M596.23,-389C596.23,-389 674.95,-389 674.95,-389"/><polygon fill="#000" stroke="#000" stroke-width="3" points="674.95 -392.5 684.95 -389 674.95 -385.5 674.95 -392.5"/></g><g id="node10" class="node"><title>_10</title><polygon fill="#fff" stroke="#000" points="598 -299 439 -299 439 -263 598 -263 598 -299"/><text x="489" y="-284.8" font-family="Arial" font-size="14" font-weight="bold" text-anchor="start">C structs</text><text x="447" y="-270.8" fill="#777" font-family="Arial" font-size="14" font-style="italic" text-anchor="start">JOYSTICK_FEATURE*</text></g><g id="node11" class="node"><title>_11</title><polygon fill="#fff" stroke="#000" points="831 -515 691 -515 691 -479 831 -479 831 -515"/><text x="699" y="-500.8" font-family="Arial" font-size="14" font-weight="bold" text-anchor="start">Joystick Peripheral</text><text x="701" y="-486.8" fill="#777" font-family="Arial" font-size="14" font-style="italic" text-anchor="start">CPeripheralJoystick</text></g><g id="node13" class="node"><title>_13</title><polygon fill="#fff" stroke="#000" points="835.5 -191 686.5 -191 686.5 -155 835.5 -155 835.5 -191"/><text x="694.5" y="-176.8" font-family="Arial" font-size="14" font-weight="bold" text-anchor="start">Keyboard Peripheral</text><text x="696" y="-162.8" fill="#777" font-family="Arial" font-size="14" font-style="italic" text-anchor="start">CPeripheralKeyboard</text></g><g id="node14" class="node"><title>_14</title><polygon fill="#fff" stroke="#000" points="831 -83 691 -83 691 -47 831 -47 831 -83"/><text x="699" y="-68.8" font-family="Arial" font-size="14" font-weight="bold" text-anchor="start">Keyboard Handling</text><text x="706.5" y="-54.8" fill="#777" font-family="Arial" font-size="14" font-style="italic" text-anchor="start">IKeyboardHandler</text></g><g id="node15" class="node"><title/><polygon fill="none" stroke="red" points="788 -299 734 -299 734 -263 788 -263 788 -299"/></g></g></svg>