<svg xmlns="http://www.w3.org/2000/svg" xmlns:xlink="http://www.w3.org/1999/xlink" id="main" onload="init(evt)" version="1.1" xml:space="preserve"><style type="text/css">.edge:hover path{stroke:red}.edge:hover polygon{stroke:red;fill:red}</style><script type="text/javascript"><![CDATA[
var edges = document.getElementsByTagName('g');
if (edges && edges.length) {
  for (var i=0;i<edges.length;i++) {
    if (edges[i].id.substr(0,4)=='edge') {
      edges[i].setAttribute('class','edge');
    }
  }
}
]]></script><defs><circle id="rim" cx="0" cy="0" r="7"/><circle id="rim2" cx="0" cy="0" r="3.5"/><g id="zoomPlus"><use fill="#404040" xlink:href="#rim"><set attributeName="fill" begin="zoomplus.mouseover" end="zoomplus.mouseout" to="#808080"/></use><path fill="none" stroke="#fff" stroke-width="1.5" d="M-4,0h8M0,-4v8" pointer-events="none"/></g><g id="zoomMin"><use fill="#404040" xlink:href="#rim"><set attributeName="fill" begin="zoomminus.mouseover" end="zoomminus.mouseout" to="#808080"/></use><path fill="none" stroke="#fff" stroke-width="1.5" d="M-4,0h8" pointer-events="none"/></g><g id="dirArrow"><path fill="none" stroke="#fff" stroke-width="1.5" d="M0,-3.0v7 M-2.5,-0.5L0,-3.0L2.5,-0.5"/></g><g id="resetDef"><use fill="#404040" xlink:href="#rim2"><set attributeName="fill" begin="reset.mouseover" end="reset.mouseout" to="#808080"/></use></g></defs><script type="text/javascript">var viewWidth = 517; var viewHeight = 617;</script><script xlink:href="svgpan.js"/><svg id="graph" class="graph"><g id="viewport"><title>D</title><polygon fill="#fff" stroke="transparent" points="-4 4 -4 -613 512.5 -613 512.5 4 -4 4"/><text x="254.25" y="-7.8" fill="#fff" font-family="Times,serif" font-size="14" text-anchor="middle">Orthogonal edges</text><g id="clust1" class="cluster"><title>cluster_4</title><polygon fill="red" stroke="#fff" points="0 -31 0 -601 215 -601 215 -31 0 -31"/><text x="31" y="-582" fill="#fff" font-family="Times,serif" font-size="20" font-weight="bold" text-anchor="start">Peripheral Busses</text></g><g id="clust2" class="cluster"><title>cluster_4_1</title><polygon fill="#fff" stroke="#fff" points="23.5 -363 23.5 -563 191.5 -563 191.5 -363 23.5 -363"/><text x="32.5" y="-545.6" font-family="Times,serif" font-size="18" font-weight="bold" text-anchor="start">Virtual Add-on Bus</text><text x="45.5" y="-530.8" fill="#777" font-family="Times,serif" font-size="14" font-style="italic" text-anchor="start">CPeripheralBusAddon</text></g><g id="clust3" class="cluster"><title>cluster_4_2</title><polygon fill="red" stroke="red" points="72.5 -255 72.5 -307 142.5 -307 142.5 -255 72.5 -255"/></g><g id="clust4" class="cluster"><title>cluster_4_3</title><polygon fill="#fff" stroke="#fff" points="8 -39 8 -239 207 -239 207 -39 8 -39"/><text x="16" y="-221.6" font-family="Times,serif" font-size="18" font-weight="bold" text-anchor="start">Virtual Application Bus</text><text x="32" y="-206.8" fill="#777" font-family="Times,serif" font-size="14" font-style="italic" text-anchor="start">CPeripheralBusApplication</text></g><g id="clust5" class="cluster"><title>cluster_7</title><polygon fill="red" stroke="#fff" points="254.5 -355 254.5 -561 500.5 -561 500.5 -355 254.5 -355"/><text x="317" y="-542" fill="#fff" font-family="Times,serif" font-size="20" font-weight="bold" text-anchor="start">Input Library</text></g><g id="clust6" class="cluster"><title>cluster_7_1</title><polygon fill="red" stroke="red" points="262.5 -363 262.5 -523 492.5 -523 492.5 -363 262.5 -363"/></g><g id="node1" class="node"><title>_11</title><polygon fill="#fff" stroke="#000" points="177.5 -515 37.5 -515 37.5 -479 177.5 -479 177.5 -515"/><text x="45.5" y="-500.8" font-family="Arial" font-size="14" font-weight="bold" text-anchor="start">Joystick Peripheral</text><text x="47.5" y="-486.8" fill="#777" font-family="Arial" font-size="14" font-style="italic" text-anchor="start">CPeripheralJoystick</text></g><g id="node2" class="node"><title>_12</title><polygon fill="#fff" stroke="#000" points="183.5 -407 31.5 -407 31.5 -371 183.5 -371 183.5 -407"/><text x="58" y="-392.8" font-family="Arial" font-size="14" font-weight="bold" text-anchor="start">Event Handling</text><text x="39.5" y="-378.8" fill="#777" font-family="Arial" font-size="14" font-style="italic" text-anchor="start">IJoystickDriverHandler</text></g><g id="node5" class="node"><title>_15</title><polygon fill="#fff" stroke="#000" points="480.5 -515 274.5 -515 274.5 -479 480.5 -479 480.5 -515"/><text x="330" y="-500.8" font-family="Arial" font-size="14" font-weight="bold" text-anchor="start">Input Handling</text><text x="282.5" y="-486.8" fill="#777" font-family="Arial" font-size="14" font-style="italic" text-anchor="start">CGenericJoystickInputHandling</text></g><g id="edge1" class="edge"><title>_12-&gt;_15</title><path fill="none" stroke="#000" stroke-width="3" d="M183.84,-395C207.5,-395 227.5,-395 227.5,-395 227.5,-395 227.5,-497 227.5,-497 227.5,-497 264.14,-497 264.14,-497"/><polygon fill="#000" stroke="#000" stroke-width="3" points="264.14 -500.5 274.14 -497 264.14 -493.5 264.14 -500.5"/></g><g id="node6" class="node"><title>_16</title><polygon fill="#fff" stroke="#000" points="484.5 -407 270.5 -407 270.5 -371 484.5 -371 484.5 -407"/><text x="325.5" y="-392.8" font-family="Arial" font-size="14" font-weight="bold" text-anchor="start">Button Mapping</text><text x="278.5" y="-378.8" fill="#777" font-family="Arial" font-size="14" font-style="italic" text-anchor="start">CGenericJoystickButtonMapping</text></g><g id="edge2" class="edge"><title>_12-&gt;_16</title><path fill="none" stroke="#000" stroke-width="3" d="M183.79,-383C183.79,-383 260.42,-383 260.42,-383"/><polygon fill="#000" stroke="#000" stroke-width="3" points="260.42 -386.5 270.42 -383 260.42 -379.5 260.42 -386.5"/></g><g id="node3" class="node"><title>_13</title><polygon fill="#fff" stroke="#000" points="182 -191 33 -191 33 -155 182 -155 182 -191"/><text x="41" y="-176.8" font-family="Arial" font-size="14" font-weight="bold" text-anchor="start">Keyboard Peripheral</text><text x="42.5" y="-162.8" fill="#777" font-family="Arial" font-size="14" font-style="italic" text-anchor="start">CPeripheralKeyboard</text></g><g id="node4" class="node"><title>_14</title><polygon fill="#fff" stroke="#000" points="177.5 -83 37.5 -83 37.5 -47 177.5 -47 177.5 -83"/><text x="45.5" y="-68.8" font-family="Arial" font-size="14" font-weight="bold" text-anchor="start">Keyboard Handling</text><text x="53" y="-54.8" fill="#777" font-family="Arial" font-size="14" font-style="italic" text-anchor="start">IKeyboardHandler</text></g><g id="node7" class="node"><title/><polygon fill="none" stroke="red" points="134.5 -299 80.5 -299 80.5 -263 134.5 -263 134.5 -299"/></g></g></svg><g id="navigator" fill="#404254" transform="translate(0 0)"><rect width="60" height="60" x="0" y="0" fill="#f2f5e9" fill-opacity=".5" stroke="#606060" stroke-width=".5"/><use id="zoomplus" x="17" y="9" onmousedown="handleZoom(evt,'in')" xlink:href="#zoomPlus"/><use id="zoomminus" x="42" y="9" onmousedown="handleZoom(evt,'out')" xlink:href="#zoomMin"/><use id="reset" x="30" y="36" onmousedown="handleReset()" xlink:href="#resetDef"/><g id="arrowUp" onmousedown="handlePan(0,-1)" transform="translate(30 24)" xlink:href="#dirArrow"><use fill="#404040" xlink:href="#rim"><set attributeName="fill" begin="arrowUp.mouseover" end="arrowUp.mouseout" to="#808080"/></use><path fill="none" stroke="#fff" stroke-width="1.5" d="M0,-3.0v7 M-2.5,-0.5L0,-3.0L2.5,-0.5"/></g><g id="arrowRight" onmousedown="handlePan(1,0)" transform="rotate(90) translate(36 -43)" xlink:href="#dirArrow"><use fill="#404040" xlink:href="#rim"><set attributeName="fill" begin="arrowRight.mouseover" end="arrowRight.mouseout" to="#808080"/></use><path fill="none" stroke="#fff" stroke-width="1.5" d="M0,-3.0v7 M-2.5,-0.5L0,-3.0L2.5,-0.5"/></g><g id="arrowDown" onmousedown="handlePan(0,1)" transform="rotate(180) translate(-30 -48)" xlink:href="#dirArrow"><use fill="#404040" xlink:href="#rim"><set attributeName="fill" begin="arrowDown.mouseover" end="arrowDown.mouseout" to="#808080"/></use><path fill="none" stroke="#fff" stroke-width="1.5" d="M0,-3.0v7 M-2.5,-0.5L0,-3.0L2.5,-0.5"/></g><g id="arrowLeft" onmousedown="handlePan(-1,0)" transform="rotate(270) translate(-36 17)" xlink:href="#dirArrow"><use fill="#404040" xlink:href="#rim"><set attributeName="fill" begin="arrowLeft.mouseover" end="arrowLeft.mouseout" to="#808080"/></use><path fill="none" stroke="#fff" stroke-width="1.5" d="M0,-3.0v7 M-2.5,-0.5L0,-3.0L2.5,-0.5"/></g></g><svg width="100%" height="30" preserveAspectRatio="xMaxYMin meet" viewBox="0 0 15 15"><g id="arrow_out" transform="scale(0.3 0.3)"><a target="_base" xlink:href="dot_inline_dotgraph_4_org.svg"><rect id="button" width="38" height="38" x="6" y="6" fill="#f2f5e9" fill-opacity=".5" stroke="#606060" stroke-width="1" rx="5" ry="5"/><path id="arrow" d="M 11.500037,31.436501 C 11.940474,20.09759 22.043105,11.32322 32.158766,21.979434 L 37.068811,17.246167 C 37.068811,17.246167 37.088388,32 37.088388,32 L 22.160133,31.978069 C 22.160133,31.978069 26.997745,27.140456 26.997745,27.140456 C 18.528582,18.264221 13.291696,25.230495 11.500037,31.436501 z" style="fill:#404040"/></a></g></svg></svg>