<svg xmlns="http://www.w3.org/2000/svg" xmlns:xlink="http://www.w3.org/1999/xlink" width="1393pt" height="1252" viewBox="0 0 1393 939"><g id="graph0" class="graph" transform="scale(1 1) rotate(0) translate(4 935)"><title>D</title><polygon fill="#fff" stroke="transparent" points="-4 4 -4 -935 1389 -935 1389 4 -4 4"/><text x="692.5" y="-7.8" fill="#fff" font-family="Times,serif" font-size="14" text-anchor="middle">Orthogonal edges</text><g id="clust1" class="cluster"><title>cluster_2</title><polygon fill="red" stroke="#fff" points="8 -617 8 -915 224 -915 224 -617 8 -617"/><text x="36" y="-896" fill="#fff" font-family="Times,serif" font-size="20" font-weight="bold" text-anchor="start">Peripheral Add-on</text></g><g id="clust2" class="cluster"><title>cluster_3</title><polygon fill="red" stroke="#fff" points="280 -617 280 -915 455 -915 455 -617 280 -617"/><text x="302.5" y="-896" fill="#fff" font-family="Times,serif" font-size="20" font-weight="bold" text-anchor="start">Peripheral API</text></g><g id="clust3" class="cluster"><title>cluster_4</title><polygon fill="red" stroke="#fff" points="502 -31 502 -601 717 -601 717 -31 502 -31"/><text x="533" y="-582" fill="#fff" font-family="Times,serif" font-size="20" font-weight="bold" text-anchor="start">Peripheral Busses</text></g><g id="clust4" class="cluster"><title>cluster_4_1</title><polygon fill="#fff" stroke="#fff" points="525.5 -363 525.5 -563 693.5 -563 693.5 -363 525.5 -363"/><text x="534.5" y="-545.6" font-family="Times,serif" font-size="18" font-weight="bold" text-anchor="start">Virtual Add-on Bus</text><text x="547.5" y="-530.8" fill="#777" font-family="Times,serif" font-size="14" font-style="italic" text-anchor="start">CPeripheralBusAddon</text></g><g id="clust5" class="cluster"><title>cluster_4_2</title><polygon fill="red" stroke="red" points="574.5 -255 574.5 -307 644.5 -307 644.5 -255 574.5 -255"/></g><g id="clust6" class="cluster"><title>cluster_4_3</title><polygon fill="#fff" stroke="#fff" points="510 -39 510 -239 709 -239 709 -39 510 -39"/><text x="518" y="-221.6" font-family="Times,serif" font-size="18" font-weight="bold" text-anchor="start">Virtual Application Bus</text><text x="534" y="-206.8" fill="#777" font-family="Times,serif" font-size="14" font-style="italic" text-anchor="start">CPeripheralBusApplication</text></g><g id="clust11" class="cluster"><title>cluster_8</title><polygon fill="red" stroke="#fff" points="1058 -725 1058 -807 1377 -807 1377 -725 1058 -725"/><text x="1172.5" y="-788" fill="#fff" font-family="Times,serif" font-size="20" font-weight="bold" text-anchor="start">Game API</text></g><g id="clust7" class="cluster"><title>cluster_7</title><polygon fill="red" stroke="#fff" points="504 -609 504 -923 1010 -923 1010 -609 504 -609"/><text x="696.5" y="-904" fill="#fff" font-family="Times,serif" font-size="20" font-weight="bold" text-anchor="start">Input Library</text></g><g id="clust8" class="cluster"><title>cluster_7_1</title><polygon fill="red" stroke="red" points="772 -617 772 -777 1002 -777 1002 -617 772 -617"/></g><g id="clust9" class="cluster"><title>cluster_7_2</title><polygon fill="red" stroke="red" points="574.5 -833 574.5 -885 644.5 -885 644.5 -833 574.5 -833"/></g><g id="clust10" class="cluster"><title>cluster_7_3</title><polygon fill="red" stroke="red" points="512 -617 512 -777 707 -777 707 -617 512 -617"/></g><g id="node1" class="node"><title>_5</title><polygon fill="#fff" stroke="#000" points="153 -877 79 -877 79 -841 153 -841 153 -877"/><text x="88.5" y="-862.8" font-family="Arial" font-size="14" font-weight="bold" text-anchor="start">Joystick</text><text x="87" y="-848.8" fill="#777" font-family="Arial" font-size="14" font-style="italic" text-anchor="start">CJoystick</text></g><g id="node2" class="node"><title>_6</title><polygon fill="#fff" stroke="#000" points="211 -769 21 -769 21 -733 211 -733 211 -769"/><text x="62.5" y="-754.8" font-family="Arial" font-size="14" font-weight="bold" text-anchor="start">Peripheral Event</text><text x="29" y="-740.8" fill="#777" font-family="Arial" font-size="14" font-style="italic" text-anchor="start">kodi::addon::PeripheralEvent</text></g><g id="node3" class="node"><title>_7</title><polygon fill="#fff" stroke="#000" points="216 -661 16 -661 16 -625 216 -625 216 -661"/><text x="80" y="-646.8" font-family="Arial" font-size="14" font-weight="bold" text-anchor="start">ButtonMap</text><text x="24" y="-632.8" fill="#777" font-family="Arial" font-size="14" font-style="italic" text-anchor="start">kodi::addon::JoystickFeatures*</text></g><g id="node6" class="node"><title>_10</title><polygon fill="#fff" stroke="#000" points="447 -661 288 -661 288 -625 447 -625 447 -661"/><text x="338" y="-646.8" font-family="Arial" font-size="14" font-weight="bold" text-anchor="start">C structs</text><text x="296" y="-632.8" fill="#777" font-family="Arial" font-size="14" font-style="italic" text-anchor="start">JOYSTICK_FEATURE*</text></g><g id="edge1" class="edge"><title>_7-&gt;_10</title><path fill="none" stroke="#000" stroke-width="3" d="M216.12,-643C216.12,-643 277.85,-643 277.85,-643"/><polygon fill="#000" stroke="#000" stroke-width="3" points="277.85 -646.5 287.85 -643 277.85 -639.5 277.85 -646.5"/></g><g id="node4" class="node"><title>_8</title><polygon fill="#fff" stroke="#000" points="429.5 -877 305.5 -877 305.5 -841 429.5 -841 429.5 -877"/><text x="341.5" y="-862.8" font-family="Arial" font-size="14" font-weight="bold" text-anchor="start">C struct</text><text x="313.5" y="-848.8" fill="#777" font-family="Arial" font-size="14" font-style="italic" text-anchor="start">JOYSTICK_INFO</text></g><g id="node5" class="node"><title>_9</title><polygon fill="#fff" stroke="#000" points="445 -769 290 -769 290 -733 445 -733 445 -769"/><text x="341.5" y="-754.8" font-family="Arial" font-size="14" font-weight="bold" text-anchor="start">C struct</text><text x="298" y="-740.8" fill="#777" font-family="Arial" font-size="14" font-style="italic" text-anchor="start">PERIPHERAL_EVENT</text></g><g id="node14" class="node"><title>_20</title><polygon fill="#fff" stroke="#000" points="699 -661 520 -661 520 -625 699 -625 699 -661"/><text x="571.5" y="-646.8" font-family="Arial" font-size="14" font-weight="bold" text-anchor="start">Button Map</text><text x="528" y="-632.8" fill="#777" font-family="Arial" font-size="14" font-style="italic" text-anchor="start">CAddonJoystickButtonMap</text></g><g id="edge2" class="edge"><title>_10-&gt;_20</title><path fill="none" stroke="#000" stroke-width="3" d="M447.08,-643C447.08,-643 509.83,-643 509.83,-643"/><polygon fill="#000" stroke="#000" stroke-width="3" points="509.83 -646.5 519.83 -643 509.83 -639.5 509.83 -646.5"/></g><g id="node7" class="node"><title>_11</title><polygon fill="#fff" stroke="#000" points="679.5 -515 539.5 -515 539.5 -479 679.5 -479 679.5 -515"/><text x="547.5" y="-500.8" font-family="Arial" font-size="14" font-weight="bold" text-anchor="start">Joystick Peripheral</text><text x="549.5" y="-486.8" fill="#777" font-family="Arial" font-size="14" font-style="italic" text-anchor="start">CPeripheralJoystick</text></g><g id="node8" class="node"><title>_12</title><polygon fill="#fff" stroke="#000" points="685.5 -407 533.5 -407 533.5 -371 685.5 -371 685.5 -407"/><text x="560" y="-392.8" font-family="Arial" font-size="14" font-weight="bold" text-anchor="start">Event Handling</text><text x="541.5" y="-378.8" fill="#777" font-family="Arial" font-size="14" font-style="italic" text-anchor="start">IJoystickDriverHandler</text></g><g id="node11" class="node"><title>_15</title><polygon fill="#fff" stroke="#000" points="990 -769 784 -769 784 -733 990 -733 990 -769"/><text x="839.5" y="-754.8" font-family="Arial" font-size="14" font-weight="bold" text-anchor="start">Input Handling</text><text x="792" y="-740.8" fill="#777" font-family="Arial" font-size="14" font-style="italic" text-anchor="start">CGenericJoystickInputHandling</text></g><g id="edge4" class="edge"><title>_12-&gt;_15</title><path fill="none" stroke="#000" stroke-width="3" d="M685.87,-389C720.14,-389 753,-389 753,-389 753,-389 753,-745 753,-745 753,-745 773.74,-745 773.74,-745"/><polygon fill="#000" stroke="#000" stroke-width="3" points="773.74 -748.5 783.74 -745 773.74 -741.5 773.74 -748.5"/></g><g id="node9" class="node"><title>_13</title><polygon fill="#fff" stroke="#000" points="684 -191 535 -191 535 -155 684 -155 684 -191"/><text x="543" y="-176.8" font-family="Arial" font-size="14" font-weight="bold" text-anchor="start">Keyboard Peripheral</text><text x="544.5" y="-162.8" fill="#777" font-family="Arial" font-size="14" font-style="italic" text-anchor="start">CPeripheralKeyboard</text></g><g id="node10" class="node"><title>_14</title><polygon fill="#fff" stroke="#000" points="679.5 -83 539.5 -83 539.5 -47 679.5 -47 679.5 -83"/><text x="547.5" y="-68.8" font-family="Arial" font-size="14" font-weight="bold" text-anchor="start">Keyboard Handling</text><text x="555" y="-54.8" fill="#777" font-family="Arial" font-size="14" font-style="italic" text-anchor="start">IKeyboardHandler</text></g><g id="node15" class="node"><title>_21</title><polygon fill="#fff" stroke="#000" points="1190 -769 1066 -769 1066 -733 1190 -733 1190 -769"/><text x="1074" y="-754.8" font-family="Arial" font-size="14" font-weight="bold" text-anchor="start">Game Controller</text><text x="1078.5" y="-740.8" fill="#777" font-family="Arial" font-size="14" font-style="italic" text-anchor="start">CControllerInput</text></g><g id="edge5" class="edge"><title>_15-&gt;_21</title><path fill="none" stroke="#000" stroke-width="3" d="M990.25,-751C990.25,-751 1055.7,-751 1055.7,-751"/><polygon fill="#000" stroke="#000" stroke-width="3" points="1055.7 -754.5 1065.7 -751 1055.7 -747.5 1055.7 -754.5"/></g><g id="node12" class="node"><title>_16</title><polygon fill="#fff" stroke="#000" points="994 -661 780 -661 780 -625 994 -625 994 -661"/><text x="835" y="-646.8" font-family="Arial" font-size="14" font-weight="bold" text-anchor="start">Button Mapping</text><text x="788" y="-632.8" fill="#777" font-family="Arial" font-size="14" font-style="italic" text-anchor="start">CGenericJoystickButtonMapping</text></g><g id="node13" class="node"><title>_19</title><polygon fill="#fff" stroke="#000" points="697 -769 522 -769 522 -733 697 -733 697 -769"/><text x="552" y="-754.8" font-family="Arial" font-size="14" font-weight="bold" text-anchor="start">Joystick Imitation</text><text x="530" y="-740.8" fill="#777" font-family="Arial" font-size="14" font-style="italic" text-anchor="start">CGenericKeyboadHandler</text></g><g id="edge3" class="edge"><title>_20-&gt;_15</title><path fill="none" stroke="#000" stroke-width="3" d="M699.27,-643C714.76,-643 726,-643 726,-643 726,-643 726,-757 726,-757 726,-757 773.67,-757 773.67,-757"/><polygon fill="#000" stroke="#000" stroke-width="3" points="773.67 -760.5 783.67 -757 773.67 -753.5 773.67 -760.5"/></g><g id="node16" class="node"><title>_22</title><polygon fill="#fff" stroke="#000" points="1369 -769 1262 -769 1262 -733 1369 -733 1369 -769"/><text x="1270" y="-754.8" font-family="Arial" font-size="14" font-weight="bold" text-anchor="start">Game Add-on</text><text x="1274" y="-740.8" fill="#777" font-family="Arial" font-size="14" font-style="italic" text-anchor="start">CGameClient</text></g><g id="edge6" class="edge"><title>_21-&gt;_22</title><path fill="none" stroke="#000" stroke-width="3" d="M1190.17,-751C1190.17,-751 1251.97,-751 1251.97,-751"/><polygon fill="#000" stroke="#000" stroke-width="3" points="1251.97 -754.5 1261.97 -751 1251.97 -747.5 1251.97 -754.5"/></g><g id="node17" class="node"><title/><polygon fill="none" stroke="red" points="636.5 -299 582.5 -299 582.5 -263 636.5 -263 636.5 -299"/></g><g id="node18" class="node"><title>-</title><polygon fill="none" stroke="red" points="636.5 -877 582.5 -877 582.5 -841 636.5 -841 636.5 -877"/><text x="609.5" y="-855.3" fill="red" font-family="Arial" font-size="14" text-anchor="middle">-</text></g></g></svg>