<svg xmlns="http://www.w3.org/2000/svg" xmlns:xlink="http://www.w3.org/1999/xlink" width="674pt" height="577pt" viewBox="0 0 674 577"><g id="graph0" class="graph" transform="scale(1 1) rotate(0) translate(4 573)"><title>D</title><polygon fill="#fff" stroke="transparent" points="-4 4 -4 -573 670 -573 670 4 -4 4"/><text x="333" y="-7.8" fill="#fff" font-family="Times,serif" font-size="14" text-anchor="middle">Orthogonal edges</text><g id="clust1" class="cluster"><title>cluster_7</title><polygon fill="red" stroke="#fff" points="8 -31 8 -561 254 -561 254 -31 8 -31"/><text x="70.5" y="-542" fill="#fff" font-family="Times,serif" font-size="20" font-weight="bold" text-anchor="start">Input Library</text></g><g id="clust2" class="cluster"><title>cluster_7_1</title><polygon fill="red" stroke="red" points="16 -363 16 -523 246 -523 246 -363 16 -363"/></g><g id="clust3" class="cluster"><title>cluster_7_2</title><polygon fill="red" stroke="red" points="96 -255 96 -307 166 -307 166 -255 96 -255"/></g><g id="clust4" class="cluster"><title>cluster_7_3</title><polygon fill="red" stroke="red" points="33.5 -39 33.5 -199 228.5 -199 228.5 -39 33.5 -39"/></g><g id="clust5" class="cluster"><title>cluster_10</title><polygon fill="red" stroke="#fff" points="302 -471 302 -553 658 -553 658 -471 302 -471"/><text x="432" y="-534" fill="#fff" font-family="Times,serif" font-size="20" font-weight="bold" text-anchor="start">Kodi Input</text></g><g id="node1" class="node"><title>_15</title><polygon fill="#fff" stroke="#000" points="234 -515 28 -515 28 -479 234 -479 234 -515"/><text x="83.5" y="-500.8" font-family="Arial" font-size="14" font-weight="bold" text-anchor="start">Input Handling</text><text x="36" y="-486.8" fill="#777" font-family="Arial" font-size="14" font-style="italic" text-anchor="start">CGenericJoystickInputHandling</text></g><g id="node5" class="node"><title>_25</title><polygon fill="#fff" stroke="#000" points="441 -515 310 -515 310 -479 441 -479 441 -515"/><text x="318" y="-500.8" font-family="Arial" font-size="14" font-weight="bold" text-anchor="start">Default Controller</text><text x="319.5" y="-486.8" fill="#777" font-family="Arial" font-size="14" font-style="italic" text-anchor="start">CDefaultController</text></g><g id="edge1" class="edge"><title>_15-&gt;_25</title><path fill="none" stroke="#000" stroke-width="3" d="M234.34,-497C234.34,-497 299.75,-497 299.75,-497"/><polygon fill="#000" stroke="#000" stroke-width="3" points="299.75 -500.5 309.75 -497 299.75 -493.5 299.75 -500.5"/></g><g id="node2" class="node"><title>_16</title><polygon fill="#fff" stroke="#000" points="238 -407 24 -407 24 -371 238 -371 238 -407"/><text x="79" y="-392.8" font-family="Arial" font-size="14" font-weight="bold" text-anchor="start">Button Mapping</text><text x="32" y="-378.8" fill="#777" font-family="Arial" font-size="14" font-style="italic" text-anchor="start">CGenericJoystickButtonMapping</text></g><g id="node3" class="node"><title>_19</title><polygon fill="#fff" stroke="#000" points="218.5 -191 43.5 -191 43.5 -155 218.5 -155 218.5 -191"/><text x="73.5" y="-176.8" font-family="Arial" font-size="14" font-weight="bold" text-anchor="start">Joystick Imitation</text><text x="51.5" y="-162.8" fill="#777" font-family="Arial" font-size="14" font-style="italic" text-anchor="start">CGenericKeyboadHandler</text></g><g id="node4" class="node"><title>_20</title><polygon fill="#fff" stroke="#000" points="220.5 -83 41.5 -83 41.5 -47 220.5 -47 220.5 -83"/><text x="93" y="-68.8" font-family="Arial" font-size="14" font-weight="bold" text-anchor="start">Button Map</text><text x="49.5" y="-54.8" fill="#777" font-family="Arial" font-size="14" font-style="italic" text-anchor="start">CAddonJoystickButtonMap</text></g><g id="node6" class="node"><title>_26</title><polygon fill="#fff" stroke="#000" points="650 -515 513 -515 513 -479 650 -479 650 -515"/><text x="521" y="-500.8" font-family="Arial" font-size="14" font-weight="bold" text-anchor="start">Kodi Input Handler</text><text x="521.5" y="-486.8" fill="#777" font-family="Arial" font-size="14" font-style="italic" text-anchor="start">CButtonKeyHandler</text></g><g id="edge2" class="edge"><title>_25-&gt;_26</title><path fill="none" stroke="#000" stroke-width="3" d="M441.25,-497C441.25,-497 502.83,-497 502.83,-497"/><polygon fill="#000" stroke="#000" stroke-width="3" points="502.83 -500.5 512.83 -497 502.83 -493.5 502.83 -500.5"/></g><g id="node7" class="node"><title>-</title><polygon fill="none" stroke="red" points="158 -299 104 -299 104 -263 158 -263 158 -299"/><text x="131" y="-277.3" fill="red" font-family="Arial" font-size="14" text-anchor="middle">-</text></g></g></svg>